<?xml version="1.0" encoding="iso-8859-1"?>
<!-- Generator: Adobe Illustrator 27.9.0, SVG Export Plug-In . SVG Version: 6.00 Build 0)  -->
<svg version="1.1" id="logo" xmlns="http://www.w3.org/2000/svg" xmlns:xlink="http://www.w3.org/1999/xlink" x="0px" y="0px"
	 viewBox="0 0 500 500" style="enable-background:new 0 0 500 500;" xml:space="preserve">
<g id="board">
	<path id="square1" style="fill:#596174;stroke:#313A52;stroke-width:4;stroke-miterlimit:10;" d="M153.681,5H17.857
		C10.756,5,5,10.756,5,17.857v135.824c0,7.101,5.756,12.857,12.857,12.857h135.824c7.101,0,12.857-5.756,12.857-12.857V17.857
		C166.538,10.756,160.782,5,153.681,5z"/>
	<path id="square2" style="fill:#596174;stroke:#313A52;stroke-width:4;stroke-miterlimit:10;" d="M317.912,5H182.088
		c-7.101,0-12.857,5.756-12.857,12.857v135.824c0,7.101,5.756,12.857,12.857,12.857h135.824c7.101,0,12.857-5.756,12.857-12.857
		V17.857C330.769,10.756,325.013,5,317.912,5z"/>
	<path id="square3" style="fill:#596174;stroke:#313A52;stroke-width:4;stroke-miterlimit:10;" d="M482.143,5H346.319
		c-7.101,0-12.857,5.756-12.857,12.857v135.824c0,7.101,5.756,12.857,12.857,12.857h135.824c7.101,0,12.857-5.756,12.857-12.857
		V17.857C495,10.756,489.244,5,482.143,5z"/>
	<path id="square4" style="fill:#596174;stroke:#313A52;stroke-width:4;stroke-miterlimit:10;" d="M153.681,169.231H17.857
		C10.756,169.231,5,174.987,5,182.088v135.824c0,7.101,5.756,12.857,12.857,12.857h135.824c7.101,0,12.857-5.756,12.857-12.857
		V182.088C166.538,174.987,160.782,169.231,153.681,169.231z"/>
	<path id="square5" style="fill:#596174;stroke:#313A52;stroke-width:4;stroke-miterlimit:10;" d="M317.912,169.231H182.088
		c-7.101,0-12.857,5.756-12.857,12.857v135.824c0,7.101,5.756,12.857,12.857,12.857h135.824c7.101,0,12.857-5.756,12.857-12.857
		V182.088C330.769,174.987,325.013,169.231,317.912,169.231z"/>
	<path id="square6" style="fill:#596174;stroke:#313A52;stroke-width:4;stroke-miterlimit:10;" d="M482.143,169.231H346.319
		c-7.101,0-12.857,5.756-12.857,12.857v135.824c0,7.101,5.756,12.857,12.857,12.857h135.824c7.101,0,12.857-5.756,12.857-12.857
		V182.088C495,174.987,489.244,169.231,482.143,169.231z"/>
	<path id="square7" style="fill:#596174;stroke:#313A52;stroke-width:4;stroke-miterlimit:10;" d="M153.681,333.462H17.857
		C10.756,333.462,5,339.218,5,346.319v135.824C5,489.244,10.756,495,17.857,495h135.824c7.101,0,12.857-5.756,12.857-12.857V346.319
		C166.538,339.218,160.782,333.462,153.681,333.462z"/>
	<path id="square8" style="fill:#596174;stroke:#313A52;stroke-width:4;stroke-miterlimit:10;" d="M317.912,333.462H182.088
		c-7.101,0-12.857,5.756-12.857,12.857v135.824c0,7.101,5.756,12.857,12.857,12.857h135.824c7.101,0,12.857-5.756,12.857-12.857
		V346.319C330.769,339.218,325.013,333.462,317.912,333.462z"/>
	<path id="square9" style="fill:#596174;stroke:#313A52;stroke-width:4;stroke-miterlimit:10;" d="M482.143,333.462H346.319
		c-7.101,0-12.857,5.756-12.857,12.857v135.824c0,7.101,5.756,12.857,12.857,12.857h135.824c7.101,0,12.857-5.756,12.857-12.857
		V346.319C495,339.218,489.244,333.462,482.143,333.462z"/>
</g>
<g id="elipse4">
	<path style="fill:#F490B4;" d="M250,197.692c28.843,0,52.308,23.465,52.308,52.308S278.843,302.308,250,302.308
		S197.692,278.843,197.692,250S221.157,197.692,250,197.692 M250,182.692c-37.173,0-67.308,30.135-67.308,67.308
		s30.135,67.308,67.308,67.308s67.308-30.135,67.308-67.308S287.173,182.692,250,182.692L250,182.692z"/>
</g>
<g id="elipse3">
	<path style="fill:#F490B4;" d="M250,359.231c28.843,0,52.308,23.465,52.308,52.308S278.843,463.846,250,463.846
		s-52.308-23.465-52.308-52.308S221.157,359.231,250,359.231 M250,344.231c-37.173,0-67.308,30.135-67.308,67.308
		c0,37.173,30.135,67.308,67.308,67.308s67.308-30.135,67.308-67.308C317.308,374.365,287.173,344.231,250,344.231L250,344.231z"/>
</g>
<g id="elipse2">
	<path style="fill:#F490B4;" d="M250,36.154c28.843,0,52.308,23.465,52.308,52.308S278.843,140.769,250,140.769
		s-52.308-23.465-52.308-52.308S221.157,36.154,250,36.154 M250,21.154c-37.173,0-67.308,30.135-67.308,67.308
		s30.135,67.308,67.308,67.308s67.308-30.135,67.308-67.308S287.173,21.154,250,21.154L250,21.154z"/>
</g>
<g id="elipse1">
	<path style="fill:#F490B4;" d="M88.462,36.154c28.843,0,52.308,23.465,52.308,52.308s-23.465,52.308-52.308,52.308
		s-52.308-23.465-52.308-52.308S59.619,36.154,88.462,36.154 M88.462,21.154c-37.173,0-67.308,30.135-67.308,67.308
		s30.135,67.308,67.308,67.308s67.308-30.135,67.308-67.308S125.635,21.154,88.462,21.154L88.462,21.154z"/>
</g>
<g id="cross3">
	
		<line style="fill:none;stroke:#3DC2D4;stroke-width:15;stroke-linecap:round;stroke-miterlimit:10;" x1="144.923" y1="193.538" x2="32" y2="306.462"/>
	
		<line style="fill:none;stroke:#3DC2D4;stroke-width:15;stroke-linecap:round;stroke-miterlimit:10;" x1="32" y1="193.538" x2="144.923" y2="306.462"/>
</g>
<g id="cross2">
	
		<line style="fill:none;stroke:#3DC2D4;stroke-width:15;stroke-linecap:round;stroke-miterlimit:10;" x1="468" y1="193.538" x2="355.077" y2="306.462"/>
	
		<line style="fill:none;stroke:#3DC2D4;stroke-width:15;stroke-linecap:round;stroke-miterlimit:10;" x1="355.077" y1="193.538" x2="468" y2="306.462"/>
</g>
<g id="cross1">
	
		<line style="fill:none;stroke:#3DC2D4;stroke-width:15;stroke-linecap:round;stroke-miterlimit:10;" x1="355.077" y1="32" x2="468" y2="144.923"/>
	
		<line style="fill:none;stroke:#3DC2D4;stroke-width:15;stroke-linecap:round;stroke-miterlimit:10;" x1="355.077" y1="144.923" x2="468" y2="32"/>
</g>
</svg>
